<?xml version="1.0" encoding="utf-8"?>
<!-- Generator: Adobe Illustrator 16.0.0, SVG Export Plug-In . SVG Version: 6.00 Build 0)  -->
<!DOCTYPE svg PUBLIC "-//W3C//DTD SVG 1.1//EN" "http://www.w3.org/Graphics/SVG/1.1/DTD/svg11.dtd">
<svg version="1.1" id="Layer_1" xmlns="http://www.w3.org/2000/svg" xmlns:xlink="http://www.w3.org/1999/xlink" x="0px" y="0px"
	 width="500px" height="500px" viewBox="0 0 500 500" enable-background="new 0 0 500 500" xml:space="preserve">
<g>
	<path fill-rule="evenodd" clip-rule="evenodd" fill="#333333" d="M428.745,363.678c0,4.642,0,8.768,0,13.325
		c17.74,0,35.084,0,52.947,0c0,2.727,0.274,5.086-0.053,7.365c-0.671,4.517,1.279,6.036,5.517,5.476
		c0.677-0.095,1.39,0.021,2.08,0.015c5.825-0.084,5.819-0.084,5.804,5.557c-0.014,5.284-0.261,10.596,0.04,15.871
		c0.22,3.663-1.148,4.478-4.53,4.319c-5.838-0.266-11.704,0.007-17.549-0.082c-3.373-0.067-4.887,1.355-4.73,4.75
		c0.131,2.644,0.036,5.291,0.036,8.282c-3.792,0-7.468,0-11.417,0c0-7.993,0-16.125,0-24.736c3.06,0,6.076-0.081,9.102,0.029
		c2.328,0.081,3.3-0.864,3.205-3.19c-0.11-2.504-0.166-5.037,0.014-7.53c0.231-3.119-1.164-4.263-4.163-4.187
		c-6.398,0.164-12.799,0.26-19.197,0.266c-3.053,0.008-4.223,1.525-4.223,4.38c0,10.87-0.014,21.739-0.069,32.603
		c-0.02,3.174,1.409,4.563,4.6,4.421c2.757-0.14,5.531-0.035,8.529-0.035c0,3.949,0,7.617,0,11.685c-6.682,0-13.196,0-19.707,0
		c-9.616,0-19.225,0.106-28.849-0.056c-3.175-0.055-4.215,1.23-4.092,4.188c0.124,2.896,0.026,5.796,0.026,9.267
		c-3.401,0-6.563,0.096-9.705-0.026c-2.408-0.097-3.613,0.63-3.586,3.277c0.083,6.962,0.041,13.937-0.082,20.896
		c-0.042,2.737,1.17,3.641,3.792,3.594c6.542-0.116,13.1,0,19.644-0.09c2.456-0.033,3.333,0.616,3.175,3.383
		c-0.521,8.944-0.368,8.957-9.484,8.979c-8.228,0.021-16.455-0.219-24.668,0.144c-4.094,0.187-5.148-1.272-4.766-4.99
		c0.254-2.587,0.056-5.229,0.056-8.227c-4.559,0-8.679,0-13.141,0c0-4.299,0-8.239,0-12.73c3.093,0,6.242-0.054,9.396,0.021
		c2.553,0.06,3.704-0.808,3.799-3.615c0.302-10.54,0.397-10.54-10.032-10.615c-0.967,0-1.932,0-3.506,0c0-2.225,0-4.243,0-6.271
		c0-1.928,0-3.844,0-6.255c3.669,0,6.967-0.095,10.267,0.035c2.246,0.088,3.382-0.637,3.368-3.02
		c-0.055-15.893-0.084-31.772-0.062-47.657c0.007-2.347-1.007-3.237-3.23-3.21c-3.307,0.055-6.605,0.021-10.343,0.021
		c0-3.635-0.055-6.811,0.021-9.972c0.054-2.299-0.979-3.271-3.253-3.257c-7.104,0.062-14.222,0.109-21.326,0.054
		c-2.847-0.027-3.053,1.759-3.046,3.873c0.007,7.242,0,14.483,0,22.121c-17.479,0-34.79,0-52.572,0c0-3.354-0.149-6.652,0.104-9.917
		c0.062-0.842,1.295-2.19,2.115-2.301c3.799-0.478,9.063,0.789,11.089-1.252c2.025-2.04,0.847-7.275,1.095-11.533
		c7.323,0,14.537-0.17,21.724,0.077c3.642,0.108,4.97-1.041,4.817-4.737c-0.246-6.118-0.246-12.265,0-18.384
		c0.152-3.744-1.245-4.997-4.858-4.676c-2.889,0.255-5.811,0.05-9.378,0.05c0-3.41-0.122-6.571,0.042-9.706
		c0.123-2.648-0.78-3.875-3.571-3.723c-2.767,0.156-5.56,0.041-8.701,0.041c0-8.528,0-16.92,0-25.852c2.978,0,6.017-0.198,9,0.116
		c0.862,0.095,2.095,1.568,2.232,2.546c0.354,2.464,0.124,5.011,0.247,7.502c0.137,2.586,1.306,4.065,4.188,4.023
		c6.557-0.095,13.101-0.055,19.65,0c2.594,0.016,3.833-0.944,3.688-3.724c-0.163-3.299-0.041-6.61-0.041-10.444
		c3.725,0,7.036-0.163,10.322,0.035c3.032,0.186,3.929-1.267,3.847-3.976c-0.068-2.745-0.014-5.491-0.014-8.446
		c3.839,0,7.413,0,11.349,0c0,8.116,0,16.234,0,24.856c-2.724,0-5.477,0.186-8.202-0.039c-3.545-0.288-5.207,0.86-4.83,4.668
		c0.26,2.731,0.04,5.51,0.04,8.733c-3.368,0-6.394,0.068-9.418-0.028c-2.859-0.082-4.004,1.26-3.983,4.039
		c0.041,6.549,0.057,13.1-0.054,19.643c-0.056,2.909,1.238,4.003,4.017,3.97c12.854-0.137,10.904,1.067,10.944-10.41
		c0-0.808,0.104-1.608,0.178-2.58c0.686-0.041,1.205-0.123,1.725-0.09c3.136,0.164,7.188-0.731,9.126,0.883
		c1.579,1.328,0.766,5.654,0.779,8.665c0.02,2.507,1.142,3.546,3.545,3.525c3.06-0.02,6.119-0.006,9.877-0.006
		c0,3.004,0,5.856,0.014,8.704c0.006,1.11-0.09,3.156,0.135,3.19c3.792,0.656,7.613,1.247,11.452,1.368
		c0.787,0.021,2.32-1.915,2.359-2.997c0.228-6.954,0.139-13.921,0.152-20.882c0-2.472-0.903-3.874-3.75-3.663
		c-2.896,0.227-5.818,0.057-9.077,0.057c0-4.203,0-8.14,0-12.525c2.655,0,5.271,0.007,7.887,0c0.964-0.014,2.203,0.327,2.872-0.144
		c4.3-2.965,1.309-7.393,1.823-11.123c0.107-0.809-2.138-2.627-3.464-2.813c-2.972-0.438-6.037-0.145-9.255-0.145
		c0-8.473,0-16.494,0-24.794c3.964,0,7.762,0,11.772,0c0,3.214-0.026,6.226,0.007,9.238c0.035,2.189,1.088,3.046,3.416,3.129
		c10.979,0.396,10.979,0.464,11.32-10.54c0.02-0.536,0.124-1.062,0.24-2.109c1.553,0,3.032,0,4.509,0
		c14.633,0,29.268-0.104,43.901,0.062c3.724,0.035,4.845-1.445,4.879-4.928c0.069-8.933,0.166-9.043,9.056-9.206
		c2.827-0.055,3.649-1.081,3.478-3.723c-0.172-2.76-0.029-5.53-0.029-8.625c4.245,0,8.181,0,12.525,0
		c0,7.433,0.13,14.777-0.067,22.121c-0.082,3.217,0.766,4.668,4.217,4.354c2.873-0.268,5.789-0.055,8.993-0.055
		c0.081,1.704,0.191,3.053,0.191,4.396c0,23.269-0.067,46.54,0.042,69.813c0.012,3.201-0.721,4.72-4.188,4.353
		c-2.334-0.253-4.729-0.048-7.708-0.048c0-3.334,0-6.592,0-9.851c-0.013-17.418-0.068-34.837,0.026-52.248
		c0.014-3.186-1.204-4.697-4.338-4.697c-11.006-0.007-22.018,0.016-33.031-0.027c-3.046-0.013-4.235,1.539-4.188,4.424
		c0.047,2.777,0.006,5.57,0.006,8.656c-3.724,0-7.414,0-11.794,0c0-2.95-0.095-6.086,0.036-9.219
		c0.116-2.63-0.897-3.916-3.595-3.874c-11.438,0.186-11.451-1.889-11.341,10.676c0.033,4.314,0.157,8.625,0.144,12.95
		c0,2.697,0.973,4.176,3.942,4.025c2.888-0.138,5.79-0.027,8.932-0.027c0,4.175,0,8.034,0,12.525c-6.625,0-13.388,0-20.156,0
		c-5.695,0-5.75,0.006-5.682,5.639c0.11,9.363-1.464,8.576,8.782,8.59C416.753,363.685,422.586,363.678,428.745,363.678z
		 M429.854,409.953c0-4.873,0-9.733,0-14.606c0-6.01-0.492-6.448-6.7-6.427c-10.006,0.033-20.006,0.089-30.013-0.041
		c-3.217-0.048-4.544,1.184-4.529,4.367c0.067,11.122,0.067,22.251,0.025,33.379c-0.02,2.778,1.041,4.013,3.943,3.985
		c11.122-0.091,22.258-0.077,33.38-0.016c2.813,0.016,4.024-1.025,3.949-3.949C429.745,421.096,429.854,415.523,429.854,409.953z"/>
	<path fill-rule="evenodd" clip-rule="evenodd" fill="#333333" d="M197.502,295.877c-0.987-1.061-1.941-2.128-2.838-3.216
		c-1.386-1.678-2.686-3.415-3.915-5.194c0,0.025,0,0.039,0,0.063c-0.25,2.729-0.055,5.495-0.055,8.438
		C193.128,295.967,195.359,295.817,197.502,295.877z"/>
	<path fill-rule="evenodd" clip-rule="evenodd" fill="#333333" d="M243.485,319.005c-0.011,1.205-0.011,2.437-0.011,3.694
		c3.351,0,6.136,0.166,8.893-0.033c3.253-0.239,4.599,0.945,4.338,4.292c-0.225,2.955-0.041,5.948-0.041,9.104
		c3.586,0,6.517-0.116,9.426,0.027c2.387,0.13,3.182-0.802,3.119-3.149c-0.129-4.312,0.014-8.637-0.006-12.954
		c-0.014-1.282-0.014-2.377-0.048-3.334c-7.51,1.724-15.399,2.401-23.691,2.401C244.799,319.053,244.143,319.031,243.485,319.005z"
		/>
	<path fill-rule="evenodd" clip-rule="evenodd" fill="#333333" d="M154.533,269.821c6.259-0.259,12.542,0.013,18.811-0.097
		c3.026-0.04,4.302,1.096,4.065,4.203c-0.208,2.737-0.042,5.503-0.042,8.802c3.322,0,6.21-0.11,9.098,0.033
		c0.525,0.023,0.994,0.104,1.438,0.198c-4.606-7.856-7.76-16.521-9.247-25.508h-28.01c0,3.086,0.174,5.717-0.048,8.316
		C150.341,268.822,151.271,269.965,154.533,269.821z"/>
	<path fill-rule="evenodd" clip-rule="evenodd" fill="#333333" d="M278.647,350.53c-6.119,0.259-12.237,0.246-18.368,0.411
		c-3.013,0.081-4.725-0.863-4.477-4.313c0.232-3.127,0.054-6.282,0.054-9.704c-3.83,0-7.022-0.096-10.204,0.027
		c-2.354,0.095-3.256-0.862-3.178-3.189c0.11-3.026,0.025-6.057,0.025-9.391c-3.422,0-6.463,0.219-9.451-0.11
		c-1.113-0.123-2.84-1.396-2.992-2.347c-0.287-1.787-0.427-3.628-0.452-5.455c-9.082-2.89-17.809-7.954-25.139-14.045
		c0.736,6.364-1.516,7.691-9.648,7.782c-0.695,0.006-1.399-0.034-2.088,0.049c-2.65,0.272-3.88-0.76-3.732-3.546
		c0.15-2.89,0.03-5.784,0.03-8.831h-11.375v24.831c5.759,0,11.181-0.012,16.605,0c11.107,0.042,9.63-1.182,9.91,9.788
		c0.087,3.566-1.296,4.546-4.672,4.511c-12.812-0.144-25.628-0.067-38.451-0.062c-11.619,0-11.619,0-10.213,11.732
		c0.019,0.123,0.182,0.204,0.714,0.78c2.713,0,5.882,0.11,9.044-0.036c2.573-0.114,3.425,0.966,3.387,3.457
		c-0.103,6.831-0.157,13.655,0.023,20.479c0.08,2.971-1.001,3.86-3.873,3.818c-10.445-0.123-20.896-0.068-31.344-0.055
		c-1.467,0.006-2.945,0.136-4.568,0.207v12.085c1.567,0,2.802,0.007,4.032,0c9.88-0.068,19.752-0.19,29.636-0.198
		c5.984-0.006,6.058,0.151,6.064,6.031c0,2.395,0,4.797,0,6.975c3.74,0,6.634-0.062,9.52,0.012c2.639,0.076,4.093,1.226,3.912,4.156
		c-0.178,3.004-0.038,6.022-0.038,9.055h11.43v-25.29c-3.114,0-5.993-0.04-8.873,0.014c-2.417,0.054-3.536-0.891-3.464-3.45
		c0.13-4.599-0.01-9.199,0.055-13.798c0.171-12.025-2.129-10.281,10.749-10.171c2.559,0.028,3.491,1.149,3.465,3.518
		c-0.03,3.177-0.01,6.339-0.01,9.856c1.776,0,3.139,0.014,4.5,0c7.951-0.054,7.951-0.054,7.974-7.926
		c0.014-5.549,0.014-5.549,5.956-5.549c6.655,0.006,6.655,0.006,6.655-6.539c0-0.416,0-0.835,0-1.259
		c0.007-5.393,0.007-5.393,5.546-5.406c8.973,0,9.123,0,8.802,8.965c-0.126,3.6,1.081,4.607,4.544,4.437
		c6.113-0.308,12.256-0.164,18.382-0.261c2.659-0.027,3.733,1.231,3.643,3.847c-0.107,3.148-0.033,6.298-0.033,9.514h12.472
		c0-2.957,0.184-5.716-0.042-8.439c-0.31-3.607,0.971-4.881,4.71-4.805c8.637,0.185,8.479,0.021,8.376-8.631
		C282.153,351.228,281.386,350.406,278.647,350.53z"/>
	<path fill-rule="evenodd" clip-rule="evenodd" fill="#333333" d="M84.59,177.189c0-4.384,0-8.223,0-12.511
		c3.097,0,5.991-0.141,8.863,0.037c3.152,0.198,4.708-0.767,4.397-4.224c-0.25-2.737-0.048-5.51-0.048-8.983
		c3.249,0,6.112-0.079,8.973,0.024c2.762,0.102,3.947-0.961,4.032-3.856c0.354-10.924,0.422-10.924,12.204-9.224
		c0,2.934-0.025,5.951,0,8.98c0.023,2.584,0.907,4.172,3.967,3.967c2.754-0.178,6.377-0.915,8.052,0.478
		c1.406,1.174,0.5,5.062,0.718,7.727c0.12,1.52,0.438,3.022,0.736,4.98c4.341,0,8.582,0,13.028,0c0,4.318,0,8.158,0,12.617
		c-3.295,0-6.581,0.126-9.859-0.037c-2.543-0.127-3.395,0.945-3.577,3.371c-0.773,10.798-0.828,10.79,9.945,10.883
		c1.09,0.01,2.177,0,3.7,0c0,2.279,0,4.185,0,6.087c0,1.934,0,3.864,0,6.253c-4.528,0-8.769,0-13.425,0
		c-0.178,2.172-0.451,3.918-0.428,5.671c0.076,5.984,0.218,11.971,0.414,17.948c0.069,2.246-0.658,3.201-3.099,3.269
		c-9.802,0.283-9.967,0.109-9.21-9.732c0.353-4.559,0.594-9.162,0.376-13.724c-0.055-1.125-2.088-3.09-3.231-3.104
		c-16.016-0.212-32.038-0.164-48.06-0.15c-0.681,0-1.935,0.163-1.951,0.328c-0.35,3.954-0.828,7.936-0.578,11.861
		c0.047,0.777,2.981,1.892,4.608,1.951c7.074,0.208,14.161,0.093,21.807,0.093c0,3.315,0.263,6.503-0.15,9.591
		c-0.148,1.078-1.886,2.536-3.083,2.746c-2.423,0.43-4.99,0.235-7.496,0.109c-2.495-0.134-3.565,0.791-3.426,3.382
		c0.155,2.894,0.039,5.803,0.039,9.106c-4.113,0-7.95,0-12.574,0c0,3.504-0.133,6.644,0.048,9.757
		c0.147,2.701-0.828,3.855-3.583,3.718c-2.771-0.144-5.547-0.032-8.973-0.032c0-6.939,0-13.71,0-20.468
		c0-5.444-0.01-5.408-5.485-5.518c-5.705-0.115-11.407-0.329-17.111-0.476c-5.133-0.126-5.828,0.556-5.838,5.572
		c0,2.348,0,4.702,0,7.542c-3.169,0-6.188,0.093-9.192-0.023c-2.542-0.11-3.583,0.956-3.381,3.456
		c0.11,1.386,0.018,2.785,0.024,4.178c0.017,6.467,0.017,6.467,6.488,6.479c7.738,0.023,7.738,0.023,7.738-7.691
		c0-1.642,0-3.294,0-5.399c3.627,0,6.936-0.178,10.208,0.12c0.839,0.075,2.068,1.564,2.208,2.534
		c0.328,2.181,0.226,4.458,0.038,6.671c-0.274,3.242,1.245,4.156,4.219,3.951c2.629-0.192,5.28-0.045,8.418-0.045
		c0,3.247,0.039,6.525-0.017,9.804c-0.049,2.566,0.93,3.983,3.699,3.662c0.274-0.034,0.558-0.006,0.838,0
		c10.875,0.11,11.133,0.445,9.169,12.121c-7.698,0-15.445,0.041-23.173-0.089c-0.753-0.007-1.636-1.074-2.153-1.854
		c-0.321-0.485,0.007-1.362-0.079-2.053c-0.359-2.931,0.007-7.885-1.297-8.384c-3.428-1.295-7.613-0.877-11.454-0.597
		c-0.837,0.055-2.018,2.341-2.169,3.697c-0.329,2.983-0.102,6.029-0.102,9.348c-3.098-0.178-5.835-0.355-8.566-0.491
		c-2.755-0.152-4.162,0.997-4.045,3.928c0.117,3.053,0.024,6.104,0.024,9.426c-2.191,0-4.217,0-6.243,0c-1.926,0-3.85,0-6.026,0
		c-0.085-1.48-0.219-2.685-0.219-3.896c-0.013-18.944,0.055-37.901-0.093-56.85c-0.024-3.182,0.681-4.239,4.077-4.233
		c9.271,0.042,9.271-0.141,9.387-9.593c0.017-0.944,0-1.891,0-3.277c3.21,0,6.082,0,8.952,0c2.974,0,4.727-1.032,4.442-4.46
		c-0.232-2.864-0.043-5.767-0.043-8.815c7.597,0,14.8-0.143,21.99,0.062c3.679,0.102,5.072-1.309,4.805-4.908
		c-0.196-2.627-0.038-5.28-0.038-8.559c2.455,0,4.758,0,7.057,0c6.351,0,6.351,0,6.351-6.523c0-2.067,0-4.133,0-6.496
		c3.898,0,7.45,0,11.667,0c0,3.061,0.123,6.204-0.032,9.336c-0.14,2.659,0.767,3.753,3.552,3.723
		c11.291-0.103,22.57-0.086,33.86-0.011c2.663,0.018,3.625-0.951,3.717-3.658c0.376-10.674,0.461-10.651-10.25-10.612
		C104.08,177.211,94.477,177.189,84.59,177.189z"/>
	<path fill-rule="evenodd" clip-rule="evenodd" fill="#333333" d="M243.639,172.877c3.88-0.431,7.847-0.649,11.925-0.688
		c-0.01-0.055-0.01-0.095-0.016-0.139c-0.236-2.403,0.295-6.071-0.993-6.896c-1.896-1.218-5.095-0.312-7.724-0.507
		c-2.526-0.188-3.582,0.672-3.309,3.309C243.688,169.582,243.639,171.228,243.639,172.877z"/>
	<path fill-rule="evenodd" clip-rule="evenodd" fill="#333333" d="M198.784,189.684c1.636-0.048,2.817,0.242,3.633,0.875
		c0.624-0.557,1.244-1.111,1.884-1.643c5.759-4.766,11.759-8.284,18.035-10.837c-9.616-0.023-19.221,0-28.837,0.097
		c-3.625,0.037-4.655-1.479-4.5-4.733c0.14-2.858,0.03-5.722,0.03-8.552h-24.784v12.306c3.333,0,6.383,0.068,9.428-0.023
		c2.684-0.079,3.792,1.111,3.694,3.771c-0.11,2.865-0.025,5.729-0.025,8.803C184.891,189.746,191.847,189.903,198.784,189.684z"/>
	<path fill-rule="evenodd" clip-rule="evenodd" fill="#333333" d="M308.052,198.555c1.423,1.721,2.758,3.513,4.017,5.351
		c0.008,0.008,0.02,0,0.035,0c3.163,0.135,6.338,0.032,9.609,0.032v-12.519h-4.791c-5.242,0-10.486-0.014-15.722-0.03
		C303.699,193.682,305.998,196.09,308.052,198.555z"/>
	<path fill-rule="evenodd" clip-rule="evenodd" fill="#333333" d="M50.782,5.179c14.191,0,28.393,0.07,42.584-0.062
		c2.769-0.023,3.663,0.789,3.567,3.553c-0.298,9.45-0.562,18.907-0.548,28.366c0.032,18.765,0.165,37.525,0.493,56.278
		c0.065,3.569-1.016,4.477-4.467,4.458c-27.986-0.117-55.973-0.098-83.948,0.025c-3.303,0.017-4.289-0.901-4.274-4.253
		C4.315,65.407,4.274,37.273,4.213,9.14C4.206,6.5,4.518,5.132,7.789,5.179c14.326,0.188,28.658,0.08,42.994,0.08
		C50.782,5.234,50.782,5.211,50.782,5.179z M50.532,85.225c9.606,0,19.215-0.201,28.815,0.085c4.247,0.126,5.202-1.601,5.171-5.403
		c-0.165-19.202-0.213-38.401-0.148-57.592c0.013-3.647-1.355-4.897-4.932-4.876c-19.349,0.133-38.688,0.158-58.036,0.12
		c-3.351-0.011-4.703,1.163-4.686,4.647c0.1,19.489,0.116,38.979-0.041,58.458c-0.024,3.552,1.314,4.633,4.624,4.592
		C31.05,85.157,40.789,85.218,50.532,85.225z"/>
	<path fill-rule="evenodd" clip-rule="evenodd" fill="#333333" d="M4.243,403.819c1.794,0,3.156,0,4.508,0
		c27.846,0,55.699,0.069,83.546-0.074c3.65-0.021,4.605,0.841,4.582,4.62c-0.165,27.692-0.093,55.384,0.065,83.091
		c0.021,3.34-0.989,4.346-4.264,4.325c-28.271-0.109-56.528-0.123-84.799-0.076c-2.299,0-3.675-0.252-3.668-3.046
		C4.268,463.278,4.243,433.895,4.243,403.819z M83.636,483.345c0.287-1.691,0.68-2.909,0.68-4.141
		c0.039-19.766,0.022-39.532,0.045-59.3c0.01-2.902-1.234-4.381-4.247-4.381c-19.78,0.043-39.557,0.043-59.337,0.056
		c-2.724,0-4.039,1.219-4.027,4.071c0.044,20.062,0.054,40.123-0.011,60.183c-0.007,2.785,1.215,3.655,3.802,3.587
		c4.462-0.123,8.921-0.068,13.381-0.075C50.343,483.345,66.767,483.345,83.636,483.345z"/>
	<path fill-rule="evenodd" clip-rule="evenodd" fill="#333333" d="M403.147,51.276c0-13.917,0.083-27.843-0.068-41.764
		c-0.04-3.378,0.739-4.419,4.389-4.396c27.973,0.196,55.93,0.148,83.89,0.07c2.669,0,3.649,0.673,3.642,3.504
		c-0.054,28.394-0.015,56.787,0.081,85.182c0.014,2.854-0.855,3.893-3.832,3.879c-27.965-0.149-55.918-0.243-83.885-0.125
		c-3.765,0.022-4.324-1.339-4.297-4.585c0.143-13.918,0.067-27.844,0.067-41.766C403.134,51.276,403.134,51.276,403.147,51.276z
		 M449.074,85.218c8.214,0,16.425,0.079,24.651-0.017c9.338-0.1,9.357,1.676,9.378-8.613c0.014-1.393,0.068-2.786,0.068-4.168
		c0.04-16.848,0.026-33.691,0.186-50.536c0.033-3.699-1.883-4.436-4.976-4.421c-19.494,0.078-38.986,0.119-58.479,0.084
		c-3.545,0-5.146,1.38-4.791,5c0.232,2.355,0.288,4.727,0.26,7.092c-0.178,16.672-0.417,33.335-0.582,50.008
		c-0.055,5.071,0.494,5.565,5.457,5.571C429.854,85.234,439.463,85.218,449.074,85.218z"/>
	<path fill-rule="evenodd" clip-rule="evenodd" fill="#333333" d="M17.648,349.436c0-3.697-0.079-6.756,0.031-9.802
		c0.086-2.465-0.907-3.676-3.395-3.58c-0.145,0-0.284,0-0.425-0.007c-10.365-0.527-10.365-0.527-9.287-11.67
		c2.943,0,5.954-0.074,8.965,0.021c2.937,0.097,4.289-0.972,4.219-4.134c-0.157-7.35-0.054-14.729-0.054-22.358
		c3.864,0,7.542,0,11.758,0c0,11.12,0.055,22.2-0.024,33.289c-0.041,5.441,0.103,5.716,5.5,5.729
		c6.824,0.013,13.645,0.007,21.132,0.007c0,2.97,0.237,5.852-0.055,8.67c-0.427,4.218,1.52,5.272,5.36,5.225
		c11.653-0.158,23.302-0.062,35.099-0.062c0,3.817,0,7.637,0,12.03c-3.749,0-7.314-0.616-10.57,0.138
		c-6.445,1.479-1.822,6.885-2.98,10.349c-0.751,2.231,0.13,4.04,3.184,3.875c3.325-0.179,6.666-0.042,10.837-0.042
		c0,3.457,0.318,6.776-0.198,9.953c-0.154,0.984-2.597,2.257-3.997,2.271c-8.905,0.083-17.817-0.273-26.729-0.26
		c-19.205,0.028-38.414,0.11-57.622,0.398c-3.457,0.054-4.483-0.993-4.192-4.246c0.219-2.47,0.037-4.968,0.037-8.13
		c3.169,0,6.051-0.165,8.888,0.056c3.356,0.26,4.914-0.796,4.572-4.408c-0.274-2.861-0.055-5.777-0.055-8.885
		c4.162,0,7.83,0,11.772,0c0,3.121,0.065,6.011-0.013,8.885c-0.08,2.97,0.705,4.517,4.239,4.449
		c11.143-0.22,22.289-0.151,33.438-0.041c2.614,0.021,3.782-0.727,3.837-3.484c0.24-12.272,1.108-10.889-9.946-10.979
		c-4.318-0.033-8.648-0.124-12.95,0.076c-2.676,0.13-3.692-0.616-3.723-3.463c-0.133-9.856-0.229-9.856-10.352-9.87
		C28.685,349.436,23.429,349.436,17.648,349.436z"/>
	<path fill-rule="evenodd" clip-rule="evenodd" fill="#333333" d="M350.398,97.432c0-13.052,0-25.779,0-38.955
		c3.306,0,6.338-0.079,9.356,0.024c2.293,0.068,3.299-0.791,3.244-3.162c-0.24-13.285,1.737-10.876-10.062-11.095
		c-0.809-0.017-1.616-0.109-2.594-0.17c0-13.053,0-25.875,0-38.911c7.959,0,15.583-0.069,23.196,0.133
		c0.655,0.018,1.793,1.837,1.819,2.847c0.178,6.691,0.22,13.381,0.067,20.062c-0.067,2.762,0.918,3.559,3.615,3.6
		c9.569,0.164,9.691,0.25,9.738,9.958c0.104,17.396-0.013,34.78,0.077,52.173c0.021,2.926-1.021,3.935-3.915,3.832
		c-9.727-0.352-8.502,1.545-8.412-8.302c0.048-5.919,0.108-5.919-5.914-5.919c-9.076,0-9.206,0.006-8.645,9.277
		c0.205,3.559-0.451,5.353-4.488,4.671C355.334,97.134,353.088,97.432,350.398,97.432z"/>
	<path fill-rule="evenodd" clip-rule="evenodd" fill="#333333" d="M190.694,124.344c0-3.771-0.075-7.211,0.035-10.653
		c0.068-2.481-0.87-3.552-3.436-3.436c-3.163,0.14-6.333,0.03-9.733,0.03c0-4.075,0-7.753,0-11.806c3.042,0,5.913,0.04,8.796-0.008
		c2.955-0.062,4.678-1.221,4.386-4.591c-0.225-2.738-0.039-5.51-0.039-8.474c4.187,0,8.036,0,12.386,0
		c0,3.192,0.048,6.478-0.017,9.756c-0.045,2.426,0.916,3.584,3.466,3.474c12.337-0.542,10.821,0.565,10.796-10.093
		c0-0.946,0-1.896,0-3.083c4.148,0,7.988,0,12.557,0c0,3.225,0.065,6.51-0.022,9.787c-0.072,2.482,0.915,3.474,3.464,3.412
		c11.447-0.283,10.171,1.636,10.359-10.146c0.065-3.765-1.096-5.424-5.021-5.016c-2.597,0.272-5.248,0.054-8.386,0.054
		c0.163-3.168,0.208-6.034,0.486-8.881c0.263-2.72-0.801-3.838-3.522-3.747c-3.309,0.11-6.619,0.023-9.986,0.023
		c0-4.208,0-8.042,0-12.182c8.35,0,16.489,0,25.249,0c0,3.247,0.085,6.532-0.03,9.812c-0.086,2.347,0.931,3.309,3.2,3.253
		c2.363-0.061,4.774-0.296,7.081,0.055c1.07,0.165,2.761,1.534,2.785,2.389c0.254,9.162,0.24,18.322,0.272,27.484
		c0.022,7.081,0.009,14.162,0.009,22.446c-6.353,0-12.119,0.175-17.862-0.038c-8.199-0.305-8.199-0.423-7.292-8.654
		c0.468-4.21-0.39-5.209-4.63-5.226c-6.403-0.013-12.81,0.103-19.21-0.03c-2.675-0.055-3.856,0.784-3.66,3.565
		c0.17,2.498,0.352,5.065-0.086,7.498c-0.205,1.14-1.745,2.739-2.848,2.896C197.275,124.61,194.226,124.344,190.694,124.344z"/>
	<path fill-rule="evenodd" clip-rule="evenodd" fill="#333333" d="M467.965,150.203c-3.778,0-7.323,0-11.355,0
		c0-3.231-0.062-6.39,0.02-9.552c0.083-2.628-0.957-3.827-3.694-3.692c-3.177,0.147-6.381,0.03-10.192,0.03c0-4.281,0-8.237,0-12.87
		c-9.028,0-17.447,0-26.31,0c0-4.344,0-8.013,0-12.185c12.492,0,25.235,0,38.514,0c0,2.851,0.11,6.02-0.042,9.178
		c-0.123,3.176,1.465,4.196,4.366,4.045c9.698-0.493,9.698-0.475,9.896-10.294c0.022-0.813,0.091-1.628,0.186-3.257
		c8.015,0,15.9-0.061,23.771,0.11c0.643,0.017,1.772,1.66,1.778,2.546c0.09,28.838,0.097,57.684-0.061,86.523
		c0,1.04-1.663,2.792-2.758,2.974c-2.697,0.438-5.503,0.14-8.899,0.14c0-3.185-0.067-6.056,0.027-8.912
		c0.124-3.747-1.095-5.806-5.351-5.303c-2.711,0.328-5.497,0.062-8.058,0.062c-0.306-0.633-0.513-0.87-0.526-1.112
		c-0.423-10.195-0.423-10.286,9.774-10.49c3.053-0.055,4.325-1.237,4.325-4.189c-0.035-11.139-0.041-22.281-0.055-33.42
		c0-2.542-1.039-3.584-3.785-3.662c-11.053-0.321-11.046-0.414-11.272,10.304C468.251,148.115,468.087,149.053,467.965,150.203z"/>
	<path fill-rule="evenodd" clip-rule="evenodd" fill="#333333" d="M4.565,138.054c8.292,0,16.205,0,24.746,0
		c0,2.633-0.007,5.211,0,7.775c0.017,5.25,0.261,5.51,5.36,5.51c6.939,0.006,13.879,0.006,21.111,0.006c0,4.014,0,7.809,0,11.744
		c-2.871,0-5.619-0.006-8.357,0c-2.652,0.006-3.918,1.01-3.99,3.992c-0.244,10.084-0.36,10.084-10.329,10.108
		c-4.179,0.014-8.357,0.155-12.525-0.033c-2.981-0.13-3.881,1.088-3.851,3.921c0.103,10.17,0.031,20.334,0.031,30.498
		c0,1.502,0,3.005,0,4.709c-4.192,0-8.036,0-12.197,0C4.565,190.348,4.565,164.404,4.565,138.054z"/>
	<path fill-rule="evenodd" clip-rule="evenodd" fill="#333333" d="M483.255,269.779c0-3.243-0.076-6.262,0.026-9.279
		c0.084-2.655-0.767-3.953-3.709-4.269c-10.595-1.107-11.245-0.663-11.315,9.619c-0.006,1.081,0,2.177,0,3.629
		c-3.818,0-7.343,0-11.642,0c0-2.602-0.17-5.463,0.048-8.281c0.28-3.698-1.376-5.028-4.879-4.864
		c-1.786,0.086-3.655-0.531-5.387-0.219c-3.833,0.704-4.127-1.313-3.929-4.248c0.171-2.62,0.04-5.266,0.04-8.411
		c-4.224,0-8.165,0-12.38,0c0-4.288,0-8.065,0-12.275c2.955,0,5.666-0.006,8.376,0c2.602,0,4.218-0.79,3.964-3.887
		c-0.226-2.871-0.048-5.776-0.048-8.941c8.705,0,16.986,0,25.872,0c0,6.89,0.185,13.809-0.069,20.7
		c-0.15,3.936,1.021,5.397,5.161,5.274c9.207-0.292,9.207-0.097,9.76-9.257c0.067-1.237,0.191-2.465,0.288-3.608
		c0.383-0.226,0.602-0.486,0.841-0.492c10.863-0.366,10.795-0.36,10.699,10.376c-0.07,8.065-0.09,16.142,0.135,24.205
		c0.097,3.245-0.773,4.668-4.202,4.284C488.579,269.582,486.19,269.779,483.255,269.779z"/>
	<path fill-rule="evenodd" clip-rule="evenodd" fill="#333333" d="M368.473,204.831c-6.418-0.007-6.418-0.007-6.405-6.611
		c0-2.067,0-4.139,0-6.8c-3.285,0-6.064-0.172-8.815,0.048c-3.367,0.267-4.695-0.804-4.601-4.421
		c0.247-9.035,0.097-18.097,0.083-27.142c-0.014-8.542-0.021-8.425-8.528-8.548c-3.161-0.042-4.126,1.094-4.023,4.152
		c0.191,5.563,0.04,11.134,0.028,16.705c-0.022,5.836-0.022,5.836-5.682,5.853c-2.176,0.007-4.354,0-6.557,0v11.516
		c0.713,0.078,1.122,0.146,1.531,0.158c11.362,0.248,11.309,0.248,10.76,11.624c-0.108,2.48-0.971,3.57-3.468,3.498
		c-2.993-0.085-5.978-0.023-8.913-0.023v28.048c0.602,3.405,0.965,6.855,1.088,10.321c2.285-0.03,4.429-0.116,6.543,0.055
		c2.848,0.226,3.982-0.633,3.876-3.691c-0.234-5.838-0.057-11.691-0.043-17.542c0.007-5.311,0.192-5.506,5.332-5.518
		c7.379-0.013,14.756-0.007,22.136-0.013c4.127,0,8.247,0,12.271,0v-11.666H368.473z"/>
	<path fill-rule="evenodd" clip-rule="evenodd" fill="#333333" d="M149.447,256.559c-3.48,0-6.664,0.121-9.833-0.036
		c-2.553-0.133-3.575,0.972-3.514,3.395c0.062,2.226-0.007,4.456,0.134,6.674c0.169,2.553-0.822,3.422-3.413,3.299
		c-5.828-0.273-11.681-0.302-17.525-0.327c-1.776-0.016-3.559,0.292-5.649,0.491c0,4.339,0,8.472,0,12.784
		c-8.44,0-16.548,0-25.038,0c0-3.955,0-7.739,0-11.962c2.871,0,5.62,0.02,8.364,0c0.973-0.015,2.749,0.02,2.785-0.2
		c0.626-3.817,1.276-7.659,1.338-11.503c0.018-0.899-2.04-2.456-3.278-2.62c-2.971-0.383-6.031-0.117-9.326-0.117
		c0-4.153,0-7.987,0-12.025c21.673,0,43.181,0,64.954,0C149.447,248.268,149.447,252.088,149.447,256.559z"/>
	<path fill-rule="evenodd" clip-rule="evenodd" fill="#333333" d="M150.591,416.66c8.842,0,17.11,0,25.889,0
		c0,3.601,0.095,7.036-0.032,10.471c-0.085,2.547,1.016,3.532,3.474,3.458c2.889-0.075,5.782-0.014,9.106-0.014
		c0,7.557,0.133,14.75-0.061,21.942c-0.092,3.471,1.259,4.847,4.616,4.736c3.029-0.102,6.071-0.021,9.623-0.021
		c0,3.341,0.195,6.372-0.116,9.35c-0.095,0.89-1.549,2.177-2.513,2.299c-2.463,0.331-5.016,0.26-7.503,0.056
		c-3.208-0.26-4.192,1.232-4.076,4.182c0.127,2.901,0.03,5.805,0.03,8.986c-3.901,0-7.548,0-11.68,0c0-3.086-0.164-5.98,0.042-8.856
		c0.233-3.354-1.222-4.496-4.416-4.298c-2.767,0.171-5.553,0.041-8.675,0.041c0-3.93,0-7.706,0-11.704c2.926,0,5.798,0,8.675-0.014
		c2.818,0,4.368-1.122,4.368-4.229c0.006-12.451,0.889-10.733-10.164-10.801c-4.453-0.021-8.905-0.063-13.356,0.067
		c-2.221,0.069-3.317-0.479-3.279-2.991C150.669,431.957,150.591,424.586,150.591,416.66z"/>
	<path fill-rule="evenodd" clip-rule="evenodd" fill="#333333" d="M348.447,482.283c-4.094,0-7.83,0-12.236,0
		c0-3.367-0.098-6.645,0.033-9.91c0.103-2.559-0.965-3.518-3.456-3.422c-2.888,0.109-5.785,0.021-8.898,0.021
		c0-4.045,0-7.742,0-11.704c2.881,0,5.743-0.035,8.61,0.006c2.546,0.043,3.997-0.938,3.711-3.709c-0.042-0.404,0-0.829,0-1.246
		c-0.275-11.936,2.188-9.862-10.514-10.088c-2.732-0.057-3.752,1.246-3.717,3.791c0.034,3.039,0.007,6.078,0.007,9.637
		c-2.314,0-4.354,0-6.393,0c-1.903,0-3.818,0-5.928,0c0-8.433,0-16.453,0-25.084c3.161,0,6.311-0.13,9.432,0.035
		c3.489,0.189,4.778-1.357,4.6-4.725c-0.165-3.018-0.042-6.056-0.042-9.048c0.795-0.22,1.178-0.396,1.562-0.418
		c9.951-0.491,10.075-0.485,10.062,9.438c0,3.723,1.443,5.012,4.983,4.752c2.613-0.187,5.262-0.035,8.185-0.035
		C348.447,447.831,348.447,464.865,348.447,482.283z"/>
	<path fill-rule="evenodd" clip-rule="evenodd" fill="#333333" d="M389.712,269.753c0-3.499-0.055-6.407,0.007-9.324
		c0.055-2.756-1.136-4.162-3.97-4.009c-0.137,0.009-0.274,0.016-0.418,0.009c-8.946-0.162-8.931-0.162-8.876-8.976
		c0.04-4.308,0.075-8.626,0.014-12.939c-0.028-2.111,0.204-3.26,2.955-3.145c10.269,0.444,10.269,0.328,10.269-9.883
		c0-0.945,0-1.893,0-3.168c8.535,0,16.809,0,25.645,0c0,4.133,0.069,8.24-0.02,12.347c-0.09,3.997-0.33,7.986-0.535,12.47
		c-4.139,0-8.228,0-12.688,0c0,7.841-0.139,15.188,0.069,22.526c0.081,3.148-0.419,4.722-4.066,4.174
		C395.537,269.438,392.868,269.753,389.712,269.753z"/>
	<path fill-rule="evenodd" clip-rule="evenodd" fill="#333333" d="M215.787,415.449c-4.113,0-7.672,0-11.882,0
		c0-7.994-0.089-15.743,0.123-23.47c0.023-0.767,1.753-1.917,2.834-2.121c1.886-0.343,3.912-0.314,5.828-0.049
		c3.983,0.567,4.75-1.444,4.592-4.852c-0.345-7.858-0.267-7.858,7.567-7.858c10.139,0,20.279,0,30.519,0
		c0.188,0.876,0.38,1.383,0.408,1.903c0.41,9.931,0.41,10.047-9.294,10.362c-3.098,0.095-4.101,1.122-4.023,4.188
		c0.182,7.214,0.055,14.428,0.055,22.149c-3.575,0-6.867,0.191-10.116-0.124c-0.828-0.089-1.933-1.739-2.121-2.813
		c-0.328-1.883-0.171-3.895,0.011-5.824c0.318-3.409-1.15-4.896-4.526-4.729c-11.289,0.539-9.958-1.589-9.974,9.642
		C215.78,412.95,215.787,414.06,215.787,415.449z"/>
	<path fill-rule="evenodd" clip-rule="evenodd" fill="#333333" d="M149.458,58.46c0.116,0.9,0.231,1.423,0.25,1.947
		c0.329,10.181,0.329,10.305-9.811,10.493c-2.927,0.054-4.015,1.088-3.96,3.842c0.055,2.769,0.007,5.531,0.007,8.81
		c-2.926,0-5.812,0.14-8.692-0.038c-3.146-0.212-4.279,1.314-4.272,4.185c0.019,1.808-0.006,3.614-0.013,5.422
		c0,0.698,0.288,1.69-0.065,2.025c-0.978,0.961-2.627,2.566-3.292,2.279c-2.936-1.308-8.63,3.26-8.867-2.419
		c-0.665-15.694-0.28-31.43-0.117-47.149c0.006-0.924,1.691-1.831,2.604-2.73c0.072-0.062,0.267,0.01,0.408,0
		c9.226-0.438,9.396-0.438,9.25,8.74c-0.064,3.755,1.266,4.78,4.85,4.664C134.926,58.296,142.127,58.46,149.458,58.46z"/>
	<path fill-rule="evenodd" clip-rule="evenodd" fill="#333333" d="M441.435,191.419c0.575,12.512,0.575,12.512-10.909,12.512
		c-12.402,0.007-24.804-0.104-37.206,0.079c-3.223,0.048-4.189-1.017-3.896-4.094c0.254-2.604,0.054-5.256,0.054-8.497
		c3.705,0,6.977-0.068,10.261,0.017c2.485,0.062,3.449-0.948,3.415-3.48c-0.107-7.522-0.033-15.04-0.033-22.918
		c3.847,0,7.501,0,11.737,0c0,2.677,0.008,5.415,0,8.152c-0.014,3.373,1.309,5.229,5.031,4.921c2.602-0.21,5.235-0.039,8.31-0.039
		c0,3.029,0.122,5.773-0.026,8.506c-0.207,3.49,0.951,5.248,4.769,4.889C435.657,191.217,438.438,191.419,441.435,191.419z"/>
	<path fill-rule="evenodd" clip-rule="evenodd" fill="#333333" d="M96.636,309.355c-3.214,0-6.243,0.053-9.253-0.022
		c-3.224-0.068-4.986,0.987-4.61,4.634c0.273,2.725,0.055,5.503,0.055,8.495c-12.916,0-25.499,0-38.274,0c0-8.214,0-16.229,0-24.545
		c3.779,0,7.44,0,11.516,0c0,2.827,0.126,5.592-0.03,8.329c-0.157,2.758,0.65,4.06,3.717,3.999
		c13.456-0.275,11.173,2.031,11.368-11.007c0.079-5.002,0.017-10.013,0.017-15.394c3.737,0,7.399,0,11.681,0
		c0,3.464,0.079,7.03-0.032,10.589c-0.072,2.3,0.792,3.286,3.159,3.209c3.46-0.108,6.934-0.02,10.688-0.02
		C96.636,301.57,96.636,305.227,96.636,309.355z"/>
	<path fill-rule="evenodd" clip-rule="evenodd" fill="#333333" d="M122.986,375.95c-8.582,0-16.727,0-25.244,0
		c0-4.052,0-7.98,0-12.32c3.095,0,6.13-0.063,9.166,0.014c2.616,0.074,3.759-0.945,3.71-3.688c-0.055-2.991-0.698-6.851,0.852-8.698
		c1.23-1.452,5.408-0.507,8.272-0.412c3.207,0.097,4.483-1.19,4.2-4.455c-0.25-2.998-0.055-6.03-0.055-9.459
		c3.812,0,6.994-0.187,10.133,0.122c0.805,0.091,2.019,1.665,2.087,2.623c0.253,3.435,0.095,6.912,0.095,10.744
		c4.671,0,8.925,0,13.291,0c0,4.204,0,8.035,0,12.226c-7.134,0-14.033-0.056-20.944,0.014c-5.491,0.054-5.516,0.148-5.564,5.694
		C122.973,370.83,122.986,373.294,122.986,375.95z"/>
	<path fill-rule="evenodd" clip-rule="evenodd" fill="#333333" d="M336.236,111.532c12.429,0,24.243,0.084,36.044-0.08
		c2.348-0.03,3.324,0.391,3.209,2.855c-0.144,3.021-0.033,6.046-0.033,9.523c-3.3,0-6.188-0.033-9.063,0.007
		c-2.915,0.032-4.394,1.087-4.488,4.452c-0.26,8.597-0.454,8.638-9.221,8.683c-9.453,0.047-18.904,0.01-28.692,0.01
		c0-3.945,0-7.724,0-11.745c2.389,0,4.717-0.157,7.017,0.042c3.86,0.318,5.783-0.9,5.285-5.15
		C335.977,117.445,336.236,114.69,336.236,111.532z"/>
	<path fill-rule="evenodd" clip-rule="evenodd" fill="#333333" d="M456.739,468.979c0-8.829,0-17.125,0-25.845
		c3.025,0,5.914-0.122,8.794,0.035c2.67,0.144,3.827-0.815,3.67-3.58c-0.173-2.875-0.036-5.771-0.036-8.829
		c4.271,0,8.113,0,12.525,0c0,2.896,0.165,5.763-0.04,8.617c-0.206,3.005,1.088,3.778,3.916,3.812
		c9.424,0.098,9.431,0.192,9.458,9.788c0.02,4.169-0.067,8.344,0.035,12.512c0.062,2.388-0.637,3.689-3.299,3.537
		c-2.623-0.144-5.251-0.033-8.551-0.033c0-3.065-0.033-5.921,0.021-8.766c0.062-3.171-0.91-4.718-4.587-4.656
		c-9.985,0.144-10.062-0.034-10.299,10.026c-0.055,2.465-0.713,3.593-3.341,3.423C462.407,468.849,459.777,468.979,456.739,468.979z
		"/>
	<path fill-rule="evenodd" clip-rule="evenodd" fill="#333333" d="M162.428,56.684c-4.193,0-7.752,0-11.587,0
		c0-12.47,0-24.787,0-37.671c2.332,0,4.632-0.085,6.925,0.017c5.171,0.226,6.175-0.661,6.188-5.681
		c0.023-7.7,0.023-7.762,7.973-7.912c5.529-0.099,11.053-0.014,16.844-0.014c0,3.894,0,7.841,0,12.197
		c-2.925,0-5.797,0.047-8.668-0.018c-2.574-0.055-3.757,0.901-3.692,3.686c0.068,2.981,0.725,7.145-0.886,8.655
		c-1.668,1.581-5.756,0.859-8.755,0.681c-3.413-0.211-4.374,1.407-4.357,4.398C162.452,42.102,162.428,49.183,162.428,56.684z"/>
	<path fill-rule="evenodd" clip-rule="evenodd" fill="#333333" d="M149.542,5.666c0,3.857,0,7.573,0,12.008
		c-3.318,0-6.464,0.055-9.609-0.017c-2.512-0.062-3.857,0.752-3.832,3.569c0.023,2.987,0.711,7.348-0.876,8.63
		c-2.002,1.602-6.022,0.781-9.178,0.846c-4.168,0.086-8.347-0.079-12.508,0.044c-2.146,0.065-2.997-0.591-2.975-2.823
		c0.079-6.533-0.139-13.066,0.062-19.591c0.032-1.109,1.574-3.104,2.441-3.121c11.806-0.188,23.606-0.094,35.412-0.048
		C148.715,5.163,148.955,5.382,149.542,5.666z"/>
	<path fill-rule="evenodd" clip-rule="evenodd" fill="#333333" d="M149.721,457.083c0,12.39,0.071,24.064-0.13,35.728
		c-0.017,0.999-1.817,2.753-2.841,2.792c-6.533,0.246-13.077,0.069-19.616,0.123c-2.292,0.016-3.272-0.93-3.254-3.244
		c0.047-6.543,0.062-13.08-0.055-19.615c-0.048-2.484,1.081-3.018,3.295-3.052c3.152-0.035,7.409,0.684,9.12-1.014
		c1.676-1.67,0.869-5.947,0.916-9.081c0.032-2.124,0.58-2.938,2.918-2.704C143.078,457.302,146.147,457.083,149.721,457.083z"/>
	<path fill-rule="evenodd" clip-rule="evenodd" fill="#333333" d="M163.955,191.504c4.373,0,8.113,0,12.086,0
		c0.134,0.778,0.394,1.558,0.4,2.334c0.013,15.304-0.017,30.605,0.006,45.91c0.006,1.95,0.072,3.562-2.689,3.514
		c-7.505-0.108-15.006-0.042-23.138-0.042c0-3.316-0.225-6.478,0.14-9.557c0.114-0.911,1.879-2.246,2.951-2.317
		c10.218-0.621,10.229-0.556,10.236-10.76C163.955,211.018,163.955,201.448,163.955,191.504z"/>
	<path fill-rule="evenodd" clip-rule="evenodd" fill="#333333" d="M403.271,283.146c0-4.48,0-8.055,0-12.27
		c3.19,0,6.323-0.109,9.445,0.033c2.408,0.116,3.277-0.869,3.093-3.169c-0.108-1.382-0.074-2.779-0.087-4.168
		c-0.043-6.744-0.043-6.629,6.508-6.471c6.234,0.149,12.471,0.029,19.691,0.029c0,8.281,0.075,16.01-0.11,23.717
		c-0.012,0.787-1.512,2.19-2.334,2.21C427.567,283.195,415.659,283.146,403.271,283.146z"/>
	<path fill-rule="evenodd" clip-rule="evenodd" fill="#333333" d="M217.397,482.162c0-8.338,0-16.469,0-24.929
		c3.96,0,7.749,0,12.135,0c0,2.486,0.11,5.071-0.029,7.651c-0.203,3.615,0.961,5.271,4.991,5.078
		c6.917-0.314,13.856-0.081,21.32-0.081c0,3.559,0.178,6.858-0.123,10.116c-0.071,0.862-1.529,2.15-2.484,2.285
		c-3.37,0.481-7.86-0.67-9.896,1.117c-1.729,1.514-0.737,6.234-0.757,9.533c-0.025,2.218-0.989,2.922-3.084,2.792
		c-2.074-0.129-4.25,0.315-6.21-0.162c-1.198-0.289-2.091-1.848-3.107-2.848c-0.072-0.076,0-0.275-0.007-0.412
		c-0.315-3.229,0.507-7.591-1.259-9.348c-1.653-1.637-6.051-0.486-9.244-0.591C218.985,482.353,218.329,482.25,217.397,482.162z"/>
	<path fill-rule="evenodd" clip-rule="evenodd" fill="#333333" d="M270.311,137.105c-4.811,0-8.938,0-13.393,0
		c0-4.005,0-7.666,0-12.337c7.159,0,14.188-0.165,21.21,0.068c3.559,0.12,5.135-0.86,4.737-4.655
		c-0.302-2.822-0.055-5.711-0.055-8.595c4.422,0,8.267,0,12.291,0c0,8.285,0,16.576,0,25.354c-3.23,0-6.373,0.104-9.513-0.03
		c-2.922-0.124-3.97,1.112-3.792,3.983c0.178,3.004,0.041,6.029,0.041,9.318c-3.793,0-7.46,0-11.527,0
		C270.311,145.972,270.311,141.855,270.311,137.105z"/>
	<path fill-rule="evenodd" clip-rule="evenodd" fill="#333333" d="M297.21,31.89c3.827,0,7.276,0,11.499,0
		c0,6.892,0,13.655,0,20.407c-0.021,5.93,0.198,6.17,5.996,6.17c6.665,0,13.34,0,20.327,0c0,4.124,0,8.06,0,12.262
		c-12.593,0-25.051,0-37.822,0C297.21,57.919,297.21,45.083,297.21,31.89z"/>
	<path fill-rule="evenodd" clip-rule="evenodd" fill="#333333" d="M230.519,443.12c3.497,0,6.666-0.095,9.829,0.035
		c2.393,0.102,3.236-0.951,3.192-3.197c-0.065-2.916-0.017-5.824-0.017-9.055c12.964,0,25.79,0,38.576,0
		c0.081,0.28,0.15,0.418,0.164,0.548c0.15,10.82,0.15,10.82-10.691,10.809c-4.176,0-8.351,0.053-12.52-0.028
		c-2.292-0.043-3.305,0.944-3.276,3.229c0.055,3.176,0.014,6.367,0.014,9.87c-8.422,0-16.678,0-25.27,0
		C230.519,451.39,230.519,447.461,230.519,443.12z"/>
	<path fill-rule="evenodd" clip-rule="evenodd" fill="#333333" d="M297.107,109.981c0-8.309,0-16.328,0-24.562
		c3.771,0,7.346,0,11.507,0c0,2.857,0,5.723,0,8.577c0.006,3.217,1.354,4.781,4.839,4.677c10.696-0.329,10.327,1.589,10.209-9.981
		c-0.02-0.962-0.006-1.925-0.006-3.176c3.874,0,7.529,0,11.458,0c0,8.104,0,16.124,0,24.465
		C322.568,109.981,309.995,109.981,297.107,109.981z"/>
	<path fill-rule="evenodd" clip-rule="evenodd" fill="#333333" d="M388.343,270.876c0.172,3.522,0.548,6.461,0.321,9.334
		c-0.081,1-1.656,2.684-2.573,2.697c-11.771,0.178-23.557,0.124-35.659,0.124c0-8.609,0-16.989,0-25.67
		c3.272,0,6.175-0.195,9.022,0.113c0.944,0.109,1.737,1.545,2.559,2.408c0.138,0.15,0.021,0.546,0.035,0.822
		c0.546,10.156,0.546,10.156,10.915,10.171C377.946,270.89,382.937,270.876,388.343,270.876z"/>
	<path fill-rule="evenodd" clip-rule="evenodd" fill="#333333" d="M375.45,151.588c0,3.601,0.073,6.909-0.023,10.211
		c-0.067,2.166,0.83,2.994,2.965,2.902c2.498-0.116,5.058-0.328,7.481,0.104c1.102,0.183,1.979,1.796,2.907,2.806
		c0.131,0.157,0.022,0.54,0.022,0.821c0,8.764,0,8.764-8.802,8.764c-4.73,0.007-9.461,0.109-14.167-0.108
		c-0.987-0.049-2.704-1.285-2.726-1.996c-0.198-7.744-0.13-15.492-0.13-23.503C367.181,151.588,370.999,151.588,375.45,151.588z"/>
	<path fill-rule="evenodd" clip-rule="evenodd" fill="#333333" d="M97.795,310.375c8.444,0,16.57,0,25.021,0
		c0,8.465,0,16.733,0,25.345c-3.967,0-7.885,0-12.275,0c0-2.937-0.14-5.826,0.036-8.692c0.2-3.156-0.841-4.655-4.24-4.367
		c-2.731,0.233-5.482,0.039-8.542,0.039C97.795,318.466,97.795,314.638,97.795,310.375z"/>
	<path fill-rule="evenodd" clip-rule="evenodd" fill="#333333" d="M430.058,362.788c0-4.366,0-8.083,0-12.024
		c10.165,0,20.125-0.042,30.076,0.013c8.844,0.049,9.296,0.562,8.084,9.567c-0.123,0.911-1.596,2.335-2.457,2.343
		C453.974,362.843,442.16,362.788,430.058,362.788z"/>
	<path fill-rule="evenodd" clip-rule="evenodd" fill="#333333" d="M321.814,164.975c0,4.045,0,7.885,0,11.979
		c-8.288,0-16.397,0-24.674,0c0-8.45,0-16.722,0-25.264c3.753,0,7.283,0,11.439,0c0,2.591-0.021,5.038,0,7.489
		c0.06,5.286,0.251,5.467,5.346,5.491c2.23,0.008,4.448,0.015,6.679,0.039C320.864,164.708,321.125,164.818,321.814,164.975z"/>
	<path fill-rule="evenodd" clip-rule="evenodd" fill="#333333" d="M441.558,457.028c0,3.396,0.069,5.887-0.02,8.385
		c-0.117,3.141,1.19,4.646,4.455,4.488c2.888-0.144,5.791-0.02,8.802-0.02c0,4.243,0,8.091,0,12.224c-8.233,0-16.357,0-24.941,0
		c0-7.721-0.055-15.337,0.097-22.956c0.014-0.725,1.309-1.971,2.081-2.026C435.041,456.877,438.087,457.028,441.558,457.028z"/>
	<path fill-rule="evenodd" clip-rule="evenodd" fill="#333333" d="M441.668,138.232c0,7.936,0.074,15.564-0.144,23.185
		c-0.021,0.64-2.019,1.734-3.13,1.759c-7.213,0.164-14.44,0.085-22.01,0.085c0-3.88,0-7.665,0-11.82
		c3.476,0,6.784-0.072,10.089,0.013c2.477,0.073,3.532-0.93,3.422-3.465c-0.137-3.166-0.026-6.334-0.026-9.756
		C433.798,138.232,437.343,138.232,441.668,138.232z"/>
	<path fill-rule="evenodd" clip-rule="evenodd" fill="#333333" d="M333.526,256.997c-0.186-0.13-0.533-0.028-0.808-0.028
		c-2.861,0-5.709-0.008-8.596-0.008c-0.698,4.381-1.766,8.672-3.217,12.839c3.764,0.034,7.522,0.07,11.279-0.054
		c1.081-0.035,3.113-1.808,2.997-2.471C334.567,263.852,337.441,259.814,333.526,256.997z"/>
	<path fill-rule="evenodd" clip-rule="evenodd" fill="#333333" d="M308.394,416.4c0,4.354,0,8.179,0,12.306
		c-8.363,0-16.658,0-25.528,0c0-3.25-0.191-6.68,0.13-10.061c0.075-0.82,1.771-2.115,2.757-2.15
		C293.117,416.319,300.481,416.4,308.394,416.4z"/>
	<path fill-rule="evenodd" clip-rule="evenodd" fill="#333333" d="M136.218,295.939c-8.779,0-17.058,0-25.521,0
		c0-4.06,0-7.898,0-12.456c2.338,0,4.639-0.022,6.941,0.013c5.146,0.055,10.294,0.273,15.434,0.131c2.468-0.076,3.247,0.8,3.169,3.1
		C136.141,289.628,136.218,292.531,136.218,295.939z"/>
	<path fill-rule="evenodd" clip-rule="evenodd" fill="#333333" d="M482.146,495.705c-3.334,0-6.694,0.24-9.979-0.129
		c-1.097-0.123-2.779-1.732-2.89-2.786c-0.984-9.425-0.896-9.445,8.666-9.451c4.447,0,8.904,0.137,13.34-0.028
		c2.621-0.095,3.709,0.658,3.797,3.471c0.274,8.698,0.385,8.698-8.348,8.869c-1.527,0.021-3.06,0-4.586,0
		C482.146,495.672,482.146,495.692,482.146,495.705z"/>
	<path fill-rule="evenodd" clip-rule="evenodd" fill="#333333" d="M322.383,30.631c-3.324,0-6.664-0.103-9.991,0.031
		c-2.219,0.084-2.793-0.805-2.874-2.934c-0.345-9.209-0.412-9.092,8.719-8.849c4.395,0.115,8.816-0.182,13.209-0.487
		c2.793-0.202,3.998,0.547,3.978,3.638c-0.033,8.625,0.097,8.631-8.453,8.692c-1.534,0.01-3.054,0-4.587,0
		C322.383,30.692,322.383,30.662,322.383,30.631z"/>
	<path fill-rule="evenodd" clip-rule="evenodd" fill="#333333" d="M376.495,150.438c0-7.955-0.11-15.312,0.137-22.652
		c0.029-0.968,1.856-2.627,2.932-2.696c10.409-0.636,9.184-2.152,9.239,8.778c0.013,4.562,0.088,9.137-0.206,13.692
		c-0.069,1.009-1.547,2.627-2.52,2.744C383.079,150.664,380.014,150.438,376.495,150.438z"/>
	<path fill-rule="evenodd" clip-rule="evenodd" fill="#333333" d="M137.415,109.988c0-8.354,0-16.352,0-24.559
		c4.032,0,7.859,0,12.001,0c0,8.061,0,16.149,0,24.559C145.546,109.988,141.624,109.988,137.415,109.988z"/>
	<path fill-rule="evenodd" clip-rule="evenodd" fill="#333333" d="M294.958,495.726c-7.508,0-14.58-0.081-21.642,0.035
		c-2.341,0.041-3.106-0.76-3.21-3.088c-0.425-9.349-0.493-9.349,8.925-9.334c5.243,0,10.486,0,15.927,0
		C294.958,487.651,294.958,491.647,294.958,495.726z"/>
	<path fill-rule="evenodd" clip-rule="evenodd" fill="#333333" d="M230.975,150.5c0-4.412,0-8.232,0-12.543
		c7.707,0,15.169,0,22.633,0c0.142,0,0.313-0.03,0.408,0.042c3.668,2.549,1.173,6.289,1.636,9.434
		c0.138,0.877-1.685,2.896-2.651,2.933C245.792,150.619,238.578,150.5,230.975,150.5z"/>
	<path fill-rule="evenodd" clip-rule="evenodd" fill="#333333" d="M270.407,32.016c12.074-1.057,12.13-1.057,11.966,10.281
		c-0.07,4.685-0.439,9.373-0.687,14.386c-3.749,0-7.418,0-11.279,0C270.407,48.502,270.407,40.381,270.407,32.016z"/>
	<path fill-rule="evenodd" clip-rule="evenodd" fill="#333333" d="M149.721,136.95c-7.987,0-15.451,0.075-22.908-0.108
		c-0.866-0.018-2.27-1.402-2.423-2.324c-0.383-2.293-0.479-4.736-0.109-7.02c0.153-0.961,1.759-2.348,2.76-2.402
		c6.353-0.328,12.722-0.226,19.083-0.509c2.737-0.117,3.802,0.775,3.639,3.521C149.598,130.863,149.721,133.631,149.721,136.95z"/>
	<path fill-rule="evenodd" clip-rule="evenodd" fill="#333333" d="M203.895,430.786c8.801,0,17.08,0,25.638,0
		c0,3.73,0,7.256,0,11.474c-4.964,0-9.89,0-14.811,0c-2.361,0-4.74-0.201-7.081,0.039c-3.036,0.322-3.919-1.026-3.772-3.792
		C204.004,436.044,203.895,433.566,203.895,430.786z"/>
	<path fill-rule="evenodd" clip-rule="evenodd" fill="#333333" d="M335.333,309.161c-4.128,0-7.692,0-11.471,0
		c0-8.499,0-16.788,0-25.61c3.134,0,6.159-0.197,9.131,0.13c0.877,0.089,2.217,1.691,2.243,2.627
		C335.423,293.812,335.333,301.317,335.333,309.161z"/>
	<path fill-rule="evenodd" clip-rule="evenodd" fill="#333333" d="M414.88,125.097c0,8.71,0,16.703,0,25.044
		c-3.63,0-7.406,0-11.732,0c0-7.755-0.056-15.603,0.116-23.439c0.021-0.557,1.663-1.458,2.607-1.526
		C408.617,124.963,411.389,125.097,414.88,125.097z"/>
	<path fill-rule="evenodd" clip-rule="evenodd" fill="#333333" d="M281.934,110.113c-3.847,0-7.529,0-11.499,0
		c0-8.27,0-16.36,0-24.677c3.758,0,7.434,0,11.499,0C281.934,93.582,281.934,101.655,281.934,110.113z"/>
	<path fill-rule="evenodd" clip-rule="evenodd" fill="#333333" d="M229.893,17.596c-4.418,0-8.246,0-12.431,0
		c0-3.949,0-7.885,0-12.543c3.418,0,6.838-0.146,10.227,0.11c0.78,0.065,2.032,1.458,2.104,2.31
		C230.043,10.632,229.893,13.818,229.893,17.596z"/>
	<path fill-rule="evenodd" clip-rule="evenodd" fill="#333333" d="M122.847,402.165c-3.504,0.154-6.917,0.314-10.335,0.464
		c-0.267,0-0.767,0-0.773-0.056c-0.438-3.421-1.003-6.844-1.096-10.266c-0.023-0.78,1.509-2.218,2.424-2.299
		c3.124-0.288,6.293-0.124,9.78-0.124C122.847,393.992,122.847,397.811,122.847,402.165z"/>
	<path fill-rule="evenodd" clip-rule="evenodd" fill="#333333" d="M176.454,296.09c-4.348,0-8.085,0-12.47,0
		c0-3.765-1-7.72,0.243-10.759c1.643-3.997,6.143-0.727,9.289-1.562c0.718-0.192,2.708,1.404,2.799,2.321
		C176.667,289.369,176.454,292.708,176.454,296.09z"/>
	<path fill-rule="evenodd" clip-rule="evenodd" fill="#333333" d="M176.236,150.304c-4.168,0-8.002,0-12.07,0
		c0-4.014,0-7.847,0-12.019c3.983,0,7.902,0,12.07,0C176.236,142.222,176.236,146.047,176.236,150.304z"/>
	<path fill-rule="evenodd" clip-rule="evenodd" fill="#333333" d="M295.212,336.937c0,4.265,0,8.194,0,12.314
		c-4.093,0-7.912,0-12.292,0c0-3.374-0.151-6.771,0.108-10.138c0.062-0.78,1.479-2.012,2.341-2.08
		C288.634,336.787,291.946,336.937,295.212,336.937z"/>
	<path fill-rule="evenodd" clip-rule="evenodd" fill="#333333" d="M164.094,70.644c0-3.99,0-7.817,0-11.91c4.069,0,7.987,0,12.143,0
		c0,3.904,0,7.725,0,11.91C172.396,70.644,168.478,70.644,164.094,70.644z"/>
	<path fill-rule="evenodd" clip-rule="evenodd" fill="#333333" d="M69.942,177.014c-4.141,0-7.956,0-11.987,0c0-4.003,0-7.829,0-12
		c3.827,0,7.748,0,11.987,0C69.942,168.826,69.942,172.737,69.942,177.014z"/>
	<path fill-rule="evenodd" clip-rule="evenodd" fill="#333333" d="M84.519,150.164c0-3.874,0-7.701,0-12.213
		c3.425,0,6.83-0.147,10.211,0.109c0.78,0.062,2.002,1.455,2.07,2.309c0.254,3.152,0.095,6.328,0.095,9.795
		C92.655,150.164,88.734,150.164,84.519,150.164z"/>
	<path fill-rule="evenodd" clip-rule="evenodd" fill="#333333" d="M97.467,349.127c0-4.106,0-7.912,0-11.964
		c4.059,0,7.854,0,11.876,0c0,3.983,0,7.808,0,11.964C105.547,349.127,101.745,349.127,97.467,349.127z"/>
	<path fill-rule="evenodd" clip-rule="evenodd" fill="#333333" d="M136.131,416.906c0,3.948,0,7.66,0,11.678
		c-4.013,0-7.915,0-12.081,0c-0.062-0.72-0.163-1.37-0.17-2.025C123.754,415.326,124.319,414.867,136.131,416.906z"/>
	<path fill-rule="evenodd" clip-rule="evenodd" fill="#333333" d="M163.955,85.413c4.366,0,8.182,0,12.25,0
		c0,3.997,0,7.809,0,12.166c-3.462,0-6.995,0.12-10.506-0.099c-0.626-0.042-1.611-1.434-1.666-2.249
		C163.837,92.086,163.955,88.927,163.955,85.413z"/>
	<path fill-rule="evenodd" clip-rule="evenodd" fill="#333333" d="M122.863,443.12c0,4.367,0,8.193,0,12.278
		c-4.044,0-7.966,0-12.348,0c0-3.517-0.177-6.814,0.126-10.073c0.081-0.81,1.681-2.006,2.667-2.102
		C116.313,442.948,119.366,443.12,122.863,443.12z"/>
	<path fill-rule="evenodd" clip-rule="evenodd" fill="#333333" d="M203.083,70.777c-4.282,0-8.101,0-12.146,0
		c0-4.032,0-7.847,0-12.293c3.32,0,6.714-0.109,10.096,0.086c0.718,0.048,1.916,1.198,1.955,1.902
		C203.199,63.758,203.083,67.06,203.083,70.777z"/>
	<path fill-rule="evenodd" clip-rule="evenodd" fill="#333333" d="M321.891,470.217c0,4.073,0,7.818,0,12.163
		c-3.491,0-6.912,0.138-10.299-0.11c-0.76-0.054-1.965-1.443-2.035-2.298c-0.244-3.148-0.096-6.324-0.096-9.755
		C313.842,470.217,317.874,470.217,321.891,470.217z"/>
	<path fill-rule="evenodd" clip-rule="evenodd" fill="#333333" d="M164.166,495.741c0-4.314,0-8.126,0-12.17
		c4.028,0,7.847,0,12.307,0c0,3.244,0.188,6.53-0.117,9.774c-0.086,0.866-1.587,2.188-2.542,2.285
		C170.792,495.926,167.73,495.741,164.166,495.741z"/>
	<path fill-rule="evenodd" clip-rule="evenodd" fill="#333333" d="M321.686,150.446c-1.416,0-2.513,0-3.607,0
		c-9.178-0.015-9.993-0.921-8.404-10.142c0.151-0.889,1.648-2.118,2.629-2.214c2.997-0.286,6.049-0.098,9.383-0.098
		C321.686,142.136,321.686,146.057,321.686,150.446z"/>
	<path fill-rule="evenodd" clip-rule="evenodd" fill="#333333" d="M57.887,137.005c0-4.243,0-7.973,0-12.299
		c3.425,0,6.851-0.126,10.25,0.101c0.743,0.046,1.929,1.282,2.009,2.059c0.26,2.621,0.329,5.311-0.025,7.909
		c-0.11,0.845-1.673,2.043-2.659,2.13C64.443,137.184,61.383,137.005,57.887,137.005z"/>
	<path fill-rule="evenodd" clip-rule="evenodd" fill="#333333" d="M16.629,350.627c0,4.051,0,7.76,0,12.142
		c-3.529,0-6.93,0.096-10.318-0.07c-0.698-0.039-1.886-0.991-1.927-1.572c-0.203-3.038-0.209-6.101,0.017-9.133
		c0.038-0.513,1.541-1.271,2.396-1.313C9.965,350.517,13.142,350.627,16.629,350.627z"/>
	<path fill-rule="evenodd" clip-rule="evenodd" fill="#333333" d="M164.259,111.497c4.085,0,7.913,0,11.971,0
		c0,3.837,0,7.676,0,12.122c-3.857,0-7.737,0-11.971,0C164.259,119.775,164.259,115.73,164.259,111.497z"/>
	<path fill-rule="evenodd" clip-rule="evenodd" fill="#333333" d="M243.688,44.237c0-4.305,0-8.131,0-12.504
		c3.371,0,6.672-0.165,9.925,0.133c0.754,0.072,2.134,2.221,1.911,2.597c-1.878,3.059,3.131,7.975-2.214,9.616
		C250.432,44.963,247.051,44.237,243.688,44.237z"/>
	<path fill-rule="evenodd" clip-rule="evenodd" fill="#333333" d="M217.713,31.75c1.337,0,2.415,0,3.505,0c2.471,0,4.945,0,7.753,0
		c0.313,3.584,0.78,6.964,0.78,10.335c0,0.719-1.655,1.971-2.634,2.057c-3.005,0.273-6.047,0.103-9.404,0.103
		C217.713,40.137,217.713,36.216,217.713,31.75z"/>
	<path fill-rule="evenodd" clip-rule="evenodd" fill="#333333" d="M190.947,30.504c0-3.881,0-7.563,0-11.827
		c3.364,0,6.649-0.134,9.905,0.092c0.766,0.055,1.478,1.266,2.159,2.001c0.14,0.151-0.017,0.541,0.006,0.815
		c0.776,8.973,0.776,8.973-8.182,8.918C193.723,30.504,192.622,30.504,190.947,30.504z"/>
	<path fill-rule="evenodd" clip-rule="evenodd" fill="#333333" d="M350.145,402.313c0-1.437-0.02-2.785,0-4.14
		c0.123-9.082,0.137-9.165,9.075-8.315c1.02,0.096,2.629,1.546,2.725,2.504c0.355,3.129,0.136,6.325,0.136,9.951
		c-2.169,0-4.071,0-5.967,0C354.341,402.313,352.567,402.313,350.145,402.313z"/>
	<path fill-rule="evenodd" clip-rule="evenodd" fill="#333333" d="M256.377,404.053c4.545,0,8.467,0,12.621,0
		c0.082,0.884,0.163,1.539,0.191,2.198c0.301,9.958-0.567,10.792-10.362,9.425c-0.89-0.123-2.26-1.33-2.327-2.123
		C256.227,410.445,256.377,407.297,256.377,404.053z"/>
	<path fill-rule="evenodd" clip-rule="evenodd" fill="#333333" d="M190.938,163.316c0-3.779,0-7.598,0-11.697
		c4.055,0,7.856,0,12.269,0c0,3.248,0.188,6.399-0.123,9.506c-0.078,0.808-1.636,2.002-2.607,2.087
		C197.481,163.487,194.435,163.316,190.938,163.316z"/>
	<path fill-rule="evenodd" clip-rule="evenodd" fill="#333333" d="M279.291,177.087h2.11c2.162-12.262,1.588-12.95-10.201-12.307
		c-0.23,0.007-0.458,0.243-0.73,0.396v8.827C273.446,174.8,276.404,175.841,279.291,177.087z"/>
	<path fill-rule="evenodd" clip-rule="evenodd" fill="#333333" d="M269.094,457.213c0,3.211-0.144,5.858,0.042,8.494
		c0.184,2.629-0.932,3.435-3.417,3.313c-2.889-0.15-5.791-0.041-8.979-0.041c0-4.203,0-8.008,0-11.766
		C260.881,457.213,264.823,457.213,269.094,457.213z"/>
	<path fill-rule="evenodd" clip-rule="evenodd" fill="#333333" d="M137.439,415.38c0-3.784,0-7.453,0-11.341
		c4.02,0,7.863,0,11.994,0c0,3.696,0,7.364,0,11.341C145.529,415.38,141.601,415.38,137.439,415.38z"/>
	<path fill-rule="evenodd" clip-rule="evenodd" fill="#333333" d="M469.374,204.934c4.107,0,7.939,0,12.046,0
		c0,3.737,0,7.397,0,11.319c-3.977,0-7.905,0-12.046,0C469.374,212.512,469.374,208.961,469.374,204.934z"/>
	<path fill-rule="evenodd" clip-rule="evenodd" fill="#333333" d="M467.965,203.814c-3.752,0-7.215,0-11.006,0
		c0-4.045,0-7.974,0-12.152c3.545,0,7.104,0,11.006,0C467.965,195.529,467.965,199.464,467.965,203.814z"/>
	<path fill-rule="evenodd" clip-rule="evenodd" fill="#333333" d="M375.264,324.55c0,3.723,0,7.268,0,11.17
		c-3.859,0-7.762,0-11.992,0c0-3.656,0-7.297,0-11.17C367.216,324.55,371.122,324.55,375.264,324.55z"/>
	<path fill-rule="evenodd" clip-rule="evenodd" fill="#333333" d="M350.363,417.043c0.616-0.396,0.727-0.532,0.834-0.532
		c12.382,0.217,11.198-2.932,10.542,12.14c-3.764,0-7.542,0-11.376,0C350.363,424.654,350.363,420.821,350.363,417.043z"/>
	<path fill-rule="evenodd" clip-rule="evenodd" fill="#333333" d="M281.988,17.541c-4.181,0-7.7,0-11.8,0
		c0-3.576-0.096-7.105,0.076-10.615c0.033-0.651,1.06-1.739,1.683-1.787c2.759-0.185,5.539-0.219,8.29,0.048
		c0.642,0.062,1.614,1.44,1.663,2.261C282.099,10.594,281.988,13.763,281.988,17.541z"/>
	<path fill-rule="evenodd" clip-rule="evenodd" fill="#333333" d="M454.604,189.52c-0.508,0.109-0.89,0.263-1.287,0.263
		c-3.448,0.023-6.898,0.017-10.868,0.017c0-3.253-0.254-6.289,0.136-9.246c0.124-0.94,1.849-2.238,2.971-2.371
		c2.861-0.335,5.805-0.11,9.049-0.11C454.604,181.819,454.604,185.488,454.604,189.52z"/>
	<path fill-rule="evenodd" clip-rule="evenodd" fill="#333333" d="M442.96,324.487c3.799,0,7.62,0,11.711,0
		c0,3.806,0,7.453,0,11.402c-0.971,0.056-1.902,0.157-2.832,0.157C441.142,336.054,440.977,335.835,442.96,324.487z"/>
	<path fill-rule="evenodd" clip-rule="evenodd" fill="#333333" d="M215.592,482.708c0,4.895,0,8.693,0,13.348
		c-3.882-0.425-8.499,0.328-10.944-1.623c-1.715-1.369-1.863-7.979-0.206-9.493C206.729,482.859,211.382,483.394,215.592,482.708z"
		/>
	<path fill-rule="evenodd" clip-rule="evenodd" fill="#333333" d="M215.434,150.236c-3.919,0-7.494,0-11.272,0
		c-0.055-0.875-0.134-1.543-0.117-2.208c0.318-11.783-2.497-10.25,11.39-9.796C215.434,142.262,215.434,146.3,215.434,150.236z"/>
	<path fill-rule="evenodd" clip-rule="evenodd" fill="#333333" d="M323.883,483.454c3.841,0,7.303,0,11.491,0
		c0,3.485,0.122,6.907-0.095,10.288c-0.056,0.711-1.335,1.841-2.122,1.902c-3.012,0.22-6.044,0.081-9.274,0.081
		C323.883,491.511,323.883,487.671,323.883,483.454z"/>
	<path fill-rule="evenodd" clip-rule="evenodd" fill="#333333" d="M283.344,83.309c-0.24-0.321-0.404-0.421-0.404-0.531
		c-0.122-13.004-2.552-11.001,12.032-10.712c0,3.656,0,7.314,0,11.243C291.14,83.309,287.307,83.309,283.344,83.309z"/>
	<path fill-rule="evenodd" clip-rule="evenodd" fill="#333333" d="M361.561,243.111c-3.655,0-7.09,0-10.979,0
		c0-3.871,0-7.746,0-11.65c0.603-0.115,0.986-0.233,1.383-0.256C363.491,230.658,363.676,230.859,361.561,243.111z"/>
	<path fill-rule="evenodd" clip-rule="evenodd" fill="#333333" d="M84.652,335.835c0-3.75,0-7.311,0-11.178
		c3.832,0,7.753,0,11.867,0c0,3.669,0,7.311,0,11.178C92.554,335.835,88.86,335.835,84.652,335.835z"/>
	<path fill-rule="evenodd" clip-rule="evenodd" fill="#333333" d="M84.487,111.484c3.536,0,6.448,0.109,9.343-0.042
		c2.299-0.108,3.553,0.347,2.792,3.016c-0.297,1.054-0.321,2.204-0.353,3.315c-0.164,5.853-0.157,5.839-6.18,5.954
		c-1.762,0.032-3.521,0.178-5.603,0.288C84.487,119.745,84.487,115.668,84.487,111.484z"/>
	<path fill-rule="evenodd" clip-rule="evenodd" fill="#333333" d="M270.162,377.359c1.081-0.13,1.615-0.24,2.148-0.246
		c10.842-0.246,11.581,0.685,9.149,12.149c-3.175,0-6.454,0.116-9.711-0.11c-0.574-0.033-1.465-1.479-1.52-2.32
		C270.052,383.807,270.162,380.755,270.162,377.359z"/>
	<path fill-rule="evenodd" clip-rule="evenodd" fill="#333333" d="M217.593,151.697c4.1,0,7.638,0,11.41,0
		c0.281,3.875,0.547,7.506,0.828,11.407c-4.247,0-8.168,0-12.238,0C217.593,159.167,217.593,155.524,217.593,151.697z"/>
	<path fill-rule="evenodd" clip-rule="evenodd" fill="#333333" d="M55.85,111.568c0,4.248,0,8.061,0,12.081c-3.754,0-7.3,0-11.467,0
		c0-3.442-0.145-6.728,0.099-9.981c0.055-0.753,1.386-1.935,2.208-2.006C49.547,111.412,52.438,111.568,55.85,111.568z"/>
	<path fill-rule="evenodd" clip-rule="evenodd" fill="#333333" d="M297.17,350.818c3.922,0,7.356,0,11.483,0
		c0,3.545,0.13,6.815-0.095,10.074c-0.041,0.669-1.314,1.753-2.094,1.806c-2.999,0.214-6.024,0.09-9.295,0.09
		C297.17,358.511,297.17,354.711,297.17,350.818z"/>
	<path fill-rule="evenodd" clip-rule="evenodd" fill="#333333" d="M297.101,468.773c0-3.908,0-7.576,0-11.466
		c3.778,0,7.406,0,11.279,0c0,3.951,0,7.591,0,11.466C304.685,468.773,301.14,468.773,297.101,468.773z"/>
	<path fill-rule="evenodd" clip-rule="evenodd" fill="#333333" d="M231.011,18.588c3.406,0,6.448-0.165,9.46,0.12
		c0.735,0.062,1.854,1.516,1.925,2.402c0.244,3.018,0.094,6.077,0.094,9.332c-3.944,0-7.581,0-11.479,0
		C231.011,26.548,231.011,22.985,231.011,18.588z"/>
	<path fill-rule="evenodd" clip-rule="evenodd" fill="#333333" d="M215.56,83.364c-3.802,0-7.36,0-11.266,0
		c0-3.717,0-7.379,0-11.291c3.71,0,7.379,0,11.266,0C215.56,75.758,215.56,79.325,215.56,83.364z"/>
	<path fill-rule="evenodd" clip-rule="evenodd" fill="#333333" d="M188.857,72.183c0,3.74,0,7.292,0,11.112
		c-3.771,0-7.416,0-11.273,0c0-3.735,0-7.269,0-11.112C181.314,72.183,184.854,72.183,188.857,72.183z"/>
	<path fill-rule="evenodd" clip-rule="evenodd" fill="#333333" d="M162.091,189.549c-3.607,0-7.189,0-11.107,0
		c0-3.614,0-7.261,0-11.195c3.668,0,7.21,0,11.107,0C162.091,181.929,162.091,185.488,162.091,189.549z"/>
	<path fill-rule="evenodd" clip-rule="evenodd" fill="#333333" d="M414.577,404.109c0.218,0.389,0.342,0.506,0.342,0.629
		c0.234,12.792,3.464,10.861-11.799,10.621c0-1.861,0-3.744,0-5.625c0-1.788,0-3.573,0-5.625
		C407.09,404.109,410.772,404.109,414.577,404.109z"/>
	<path fill-rule="evenodd" clip-rule="evenodd" fill="#333333" d="M31.166,70.995c0-13.318,0-26.056,0-39.026
		c12.909,0,25.639,0,38.65,0c0.14,0.876,0.414,1.783,0.424,2.689c0.032,10.845,0.007,21.69,0.032,32.535
		c0.007,2.081,0.053,3.864-2.927,3.841C55.412,70.947,43.482,70.995,31.166,70.995z"/>
	<path fill-rule="evenodd" clip-rule="evenodd" fill="#333333" d="M31.33,430.686c12.932,0,25.67,0,38.93,0
		c0,5.288,0,10.367,0,15.46c-0.007,6.405-0.068,12.806,0.025,19.198c0.03,2.334-0.469,3.668-3.183,3.648
		c-11.806-0.067-23.612-0.027-35.772-0.027C31.33,456.228,31.33,443.661,31.33,430.686z"/>
	<path fill-rule="evenodd" clip-rule="evenodd" fill="#333333" d="M430.162,31.842c12.682,0,25.038,0,37.657,0
		c0.165,0.979,0.451,1.886,0.451,2.803c0.036,10.985-0.006,21.97,0.036,32.963c0.007,2.033-0.16,3.449-2.835,3.432
		c-11.675-0.101-23.339-0.045-35.31-0.045C430.162,57.93,430.162,45.083,430.162,31.842z"/>
</g>
<path fill-rule="evenodd" clip-rule="evenodd" fill="#008080" d="M324.505,269.8c-0.397,2.005-0.664,4.044-1.21,6.018
	c-2.278,8.205-7.208,14.551-14.06,19.465c-0.984,0.698-1.074,1.314-0.773,2.348c0.993,3.456,1.909,6.946,2.93,10.697
	c-0.589-0.218-0.985-0.342-1.368-0.521c-4.059-1.873-8.124-3.729-12.156-5.666c-0.944-0.46-1.759-0.362-2.723-0.122
	c-14.964,3.845-29.021,1.954-41.663-7.229c-7.721-5.599-12.783-13.101-14.182-22.71c-1.464-10.021,1.5-18.786,8.104-26.322
	c6.88-7.831,15.701-12.259,25.879-13.937c12.143-2.014,23.661-0.069,34.125,6.635c8.967,5.743,14.922,13.692,16.693,24.425
	c0.131,0.76,0.274,1.513,0.404,2.259C324.505,266.701,324.505,268.246,324.505,269.8z M295.998,261.074
	c3.279-0.021,6.003-2.744,6.01-6.016c0-3.285-2.867-6.116-6.14-6.07c-3.305,0.064-5.967,2.76-5.967,6.063
	C289.901,258.439,292.597,261.102,295.998,261.074z M261.414,254.936c0.014,3.27,2.67,5.898,5.935,5.863
	c3.188-0.039,5.825-2.668,5.839-5.85c0.02-3.215-2.685-5.952-5.894-5.952C264.057,248.988,261.407,251.663,261.414,254.936z"/>
<path fill-rule="evenodd" clip-rule="evenodd" fill="#008080" d="M283.979,227.447c-2.799,0.151-5.495,0.133-8.158,0.463
	c-14.688,1.848-26.844,8.13-34.967,20.868c-5.609,8.806-6.875,18.415-4.046,28.517c0.089,0.302,0.157,0.595,0.237,0.903
	c-2.731,0-5.438,0.274-8.067-0.068c-3.74-0.479-7.426-1.429-11.143-2.107c-0.561-0.104-1.259,0.014-1.789,0.261
	c-4.987,2.258-9.945,4.571-14.915,6.871c-0.366,0.177-0.741,0.307-1.351,0.56c0.312-1.205,0.555-2.188,0.821-3.188
	c0.907-3.348,1.776-6.708,2.744-10.034c0.275-0.918,0.025-1.355-0.718-1.89c-7.974-5.667-14.003-12.894-16.648-22.423
	c-4.289-15.467,0.231-28.587,11.679-39.385c9.155-8.629,20.343-12.833,32.806-13.716c12.692-0.906,24.506,1.879,35.166,8.928
	c8.727,5.782,14.969,13.542,17.92,23.736C283.712,226.297,283.836,226.879,283.979,227.447z M210.833,221.034
	c-0.007,3.956,3.139,7.125,7.092,7.136c3.9,0,7.141-3.255,7.111-7.152c-0.042-3.85-3.21-7.041-7.058-7.087
	C214.105,213.875,210.842,217.113,210.833,221.034z M258.499,220.885c0-3.795-3.06-6.9-6.837-6.955
	c-3.802-0.055-6.958,3.097-6.958,6.955c0.01,3.854,3.162,7.017,6.958,6.963C255.432,227.793,258.499,224.673,258.499,220.885z"/>
<rect id="_x3C_Slice_x3E_" x="1.667" y="1.667" fill-rule="evenodd" clip-rule="evenodd" fill="none" width="496.667" height="496.667"/>
</svg>
